<svg width="30" height="31" viewBox="0 0 30 31" fill="none" xmlns="http://www.w3.org/2000/svg">
<path d="M29.009 25.2778C24.989 20.5554 24.1857 14.0406 26.5895 8.59806C26.2927 8.66137 25.9841 8.69698 25.6695 8.69698C23.2678 8.69698 21.321 6.75025 21.321 4.34849C21.321 3.97853 21.3685 3.62044 21.4536 3.2762C15.6312 5.86789 8.56838 4.77582 3.79256 0L0 3.79256C5.88965 9.68221 6.17652 19.0459 0.870489 25.2778C0.593515 25.6023 0.30665 25.9208 0.00197838 26.2274L3.79454 30.02C9.98886 23.8257 20.0351 23.8257 26.2294 30.02L29.9508 26.2967C29.927 26.2729 29.9033 26.2512 29.8795 26.2294C29.5729 25.9228 29.286 25.6042 29.009 25.2798V25.2778ZM20.9966 19.7443C20.9966 20.4525 20.4169 21.0322 19.7087 21.0322H10.2401C9.53185 21.0322 8.95219 20.4525 8.95219 19.7443V10.2757C8.95219 9.56746 9.53185 8.9878 10.2401 8.9878H19.7087C20.4169 8.9878 20.9966 9.56746 20.9966 10.2757V19.7443Z" fill="black"/>
<path d="M26.2986 7.30425C28.3165 7.30425 29.9507 5.66813 29.9507 3.65216C29.9507 1.63618 28.3165 6.10352e-05 26.2986 6.10352e-05C24.2806 6.10352e-05 22.6465 1.63618 22.6465 3.65216C22.6465 5.66813 24.2806 7.30425 26.2986 7.30425Z" fill="black"/>
</svg>

